<?xml version="1.0" standalone="no"?>
<!DOCTYPE svg PUBLIC "-//W3C//DTD SVG 20010904//EN"
 "http://www.w3.org/TR/2001/REC-SVG-20010904/DTD/svg10.dtd">
<svg version="1.0" xmlns="http://www.w3.org/2000/svg"
 width="224.000000pt" height="224.000000pt" viewBox="0 0 224.000000 224.000000"
 preserveAspectRatio="xMidYMid meet">
<metadata>
Created by potrace 1.14, written by Peter Selinger 2001-2017
</metadata>
<g transform="translate(0.000000,224.000000) scale(0.100000,-0.100000)"
fill="#000000" stroke="none">
<path d="M1305 1538 l1 -83 79 0 80 0 3 83 3 82 -83 0 -84 0 1 -82z"/>
<path d="M4 1451 c-7 -8 -4 -161 4 -162 4 -1 41 -2 82 -3 l75 -1 1 -243 c0
-165 -3 -245 -10 -250 -6 -3 -42 -6 -81 -7 l-70 0 -3 -83 -3 -83 283 3 c271 3
285 4 333 26 63 29 93 57 116 107 47 101 0 239 -88 261 -35 9 -28 26 22 53 80
43 110 159 64 254 -25 53 -63 83 -136 109 -53 19 -83 21 -321 22 -145 0 -266
-1 -268 -3z m561 -248 l0 -83 -110 0 -110 0 2 83 c1 45 2 82 2 83 1 0 49 0
108 0 l108 -1 0 -82z m-10 -252 c6 -1 10 -35 11 -81 0 -74 -2 -80 -21 -81 -24
-1 -176 -1 -190 0 -11 1 -13 140 -3 157 5 7 143 10 203 5z"/>
<path d="M970 1450 c-8 -5 -13 -55 -11 -125 l1 -40 82 0 83 0 0 -238 c0 -131
-3 -243 -7 -250 -4 -7 -36 -12 -80 -12 l-73 0 -5 -35 c-3 -19 -3 -56 -2 -82
l4 -48 254 0 254 0 0 84 0 84 -67 0 c-38 0 -75 0 -83 1 -13 1 -15 43 -15 333
l0 332 -163 1 c-90 0 -168 -2 -172 -5z"/>
<path d="M1573 1444 c-2 -6 -3 -44 -1 -84 l3 -74 119 -1 119 0 -2 -332 -1
-333 90 0 90 0 1 28 c1 15 1 165 0 333 l-1 306 116 -1 c64 -1 119 1 123 4 4 3
7 40 7 83 0 62 -3 77 -15 78 -9 1 -157 2 -330 3 -219 1 -315 -2 -318 -10z"/>
</g>
</svg>
